# xmcd
#
# Track frame offsets: 
#        150
#        16512
#        44772
#        75967
#        101162
#        117906
#        134986
#        158404
#        179556
#        204534
#        214890
#        224225
#        236158
#
# Disc length: 3499 seconds
#
# Revision: 0
# Processed by: cddbd v1.5.2PL0 Copyright (c) Steve Scherf et al.
# Submitted via: ExactAudioCopy v0.95b4
#
DISCID=c20da90d
DTITLE=The O'Jays - Beautiful Ballads
DYEAR=2006
DGENRE=Ballad
TTITLE0=Let Me Make Love To You
TTITLE1=Stairway To Heaven
TTITLE2=Family Reunion
TTITLE3=Cry Together
TTITLE4=Sunshine
TTITLE5=Listen To The Clock On The Wall
TTITLE6=Who Am I
TTITLE7=Now That We Found Love
TTITLE8=You Got your Hooks In Me
TTITLE9=I've Got The Groove
TTITLE10=I Should Be Your Lover
TTITLE11=Let Me In Your World
TTITLE12=Emotionally Yours (Live @ The 30th Anniversary Bob Dylan Conc
TTITLE12=ert Celebration)
EXTD=
EXTT0=
EXTT1=
EXTT2=
EXTT3=
EXTT4=
EXTT5=
EXTT6=
EXTT7=
EXTT8=
EXTT9=
EXTT10=
EXTT11=
EXTT12=
PLAYORDER=
